#!OML:ASF H:\Dans Jumps\Project 1\Capture day 1\Session 1\subject.ASF
:FULLY-SPECIFIED
:DEGREES
541
root 0.690012 17.6676 3.12409 7.11297 0.382088 -1.20775
lowerback -1.4901 0.0606444 -0.201372
upperback 2.54555 0.0343767 1.72607
thorax 3.45117 -0.0129585 1.89094
lowerneck -13.0839 -0.471254 -2.25186
upperneck 22.9158 -0.314001 0.750239
head 9.38041 -0.256472 0.601292
rclavicle -1.78906e-015 -1.19271e-015
rhumerus -19.2491 -14.5413 -83.5188
rradius 24.9612
rwrist 32.815
rhand -21.2139 -26.2015
rfingers 7.12502
rthumb 5.16783 -56.1185
lclavicle -1.78906e-015 -1.19271e-015
lhumerus -20.0204 1.42158 88.1926
lradius 18.4378
lwrist 3.11146
lhand -26.4475 -5.80918
lfingers 7.12502
lthumb 0.113497 24.1705
rfemur -14.6247 -2.3191 20.3228
rtibia 24.3204
rfoot -14.9771 -2.24994
rtoes 12.6883
lfemur -14.0766 5.42287 -18.2667
ltibia 21.0539
lfoot -11.4546 3.72227
ltoes -3.89055
542
root 0.688775 17.6674 3.134 7.07895 0.39149 -1.20944
lowerback -1.53211 0.0469587 -0.20379
upperback 2.53145 0.0160372 1.72677
thorax 3.46098 -0.0221564 1.89228
lowerneck -13.0789 -0.466362 -2.25819
upperneck 22.7017 -0.307402 0.75641
head 9.30453 -0.252156 0.604564
rclavicle 3.37934e-015 7.15625e-015
rhumerus -19.394 -14.7253 -83.4228
rradius 24.844
rwrist 32.9912
rhand -21.1991 -26.1925
rfingers 7.12502
rthumb 5.18211 -56.1091
lclavicle 3.37934e-015 7.15625e-015
lhumerus -20.082 1.47639 88.2186
lradius 18.4167
lwrist 3.11138
lhand -26.4562 -5.83721
lfingers 7.12502
lthumb 0.105169 24.1425
rfemur -14.5352 -2.2932 20.3271
rtibia 24.2932
rfoot -14.9956 -2.28802
rtoes 12.6754
lfemur -13.9831 5.40826 -18.2513
ltibia 21.0141
lfoot -11.4706 3.73064
ltoes -3.89642
543
root 0.687728 17.6671 3.1439 7.04631 0.397567 -1.21245
lowerback -1.57544 0.0333176 -0.202428
upperback 2.51715 -0.00237471 1.72751
thorax 3.47132 -0.0312928 1.89151
lowerneck -13.0829 -0.460707 -2.26654
upperneck 22.4975 -0.298709 0.76123
head 9.234 -0.247218 0.607977
rclavicle 2.83268e-015 -2.38542e-015
rhumerus -19.5517 -14.9003 -83.3241
rradius 24.7382
rwrist 33.1527
rhand -21.1812 -26.1864
rfingers 7.12502
rthumb 5.19935 -56.1026
lclavicle 2.83268e-015 -2.38542e-015
lhumerus -20.1431 1.53576 88.2427
lradius 18.3845
lwrist 3.08885
lhand -26.461 -5.86645
lfingers 7.12502
lthumb 0.100509 24.1133
rfemur -14.4466 -2.27105 20.3319
rtibia 24.2641
rfoot -15.0138 -2.31824
rtoes 12.6651
lfemur -13.8918 5.39524 -18.2358
ltibia 20.9786
lfoot -11.4904 3.74201
ltoes -3.89782
544
root 0.686844 17.6669 3.15391 7.0151 0.404525 -1.21777
lowerback -1.62128 0.0186174 -0.19653
upperback 2.50295 -0.0224002 1.72908
thorax 3.48324 -0.0411338 1.88898
lowerneck -13.0948 -0.453043 -2.27744
upperneck 22.3011 -0.286218 0.765194
head 9.16779 -0.240832 0.611981
rclavicle 1.49089e-015 -3.18055e-015
rhumerus -19.7204 -15.0619 -83.2233
rradius 24.6435
rwrist 33.293
rhand -21.1587 -26.1909
rfingers 7.12502
rthumb 5.22111 -56.1066
lclavicle 1.49089e-015 -3.18055e-015
lhumerus -20.2017 1.59657 88.2658
lradius 18.3412
lwrist 3.04092
lhand -26.4555 -5.86636
lfingers 7.12502
lthumb 0.105814 24.1134
rfemur -14.357 -2.25914 20.3388
rtibia 24.2322
rfoot -15.034 -2.34028
rtoes 12.6576
lfemur -13.8022 5.38477 -18.2187
ltibia 20.9463
lfoot -11.5149 3.75154
ltoes -3.89732
545
root 0.686084 17.6666 3.16386 6.98643 0.416587 -1.22358
lowerback -1.66765 0.00120438 -0.188406
upperback 2.48752 -0.0461362 1.73131
thorax 3.49432 -0.0527634 1.88567
lowerneck -13.1133 -0.444819 -2.29115
upperneck 22.1141 -0.272448 0.770434
head 9.10625 -0.233968 0.617056
rclavicle 1.49089e-016 -6.75868e-015
rhumerus -19.8967 -15.2239 -83.1186
rradius 24.5508
rwrist 33.43
rhand -21.1343 -26.1991
rfingers 7.12502
rthumb 5.24472 -56.1142
lclavicle 1.49089e-016 -6.75868e-015
lhumerus -20.2588 1.65385 88.2883
lradius 18.2882
lwrist 2.97212
lhand -26.4421 -5.84744
lfingers 7.12502
lthumb 0.118786 24.1323
rfemur -14.2678 -2.25926 20.3466
rtibia 24.1981
rfoot -15.0557 -2.3562
rtoes 12.6454
lfemur -13.7165 5.37654 -18.2016
ltibia 20.9153
lfoot -11.542 3.75368
ltoes -3.89422
546
root 0.685521 17.6663 3.1738 6.96071 0.434251 -1.22759
lowerback -1.71796 -0.0189099 -0.179194
upperback 2.47358 -0.0735608 1.73307
thorax 3.50929 -0.0662216 1.88108
lowerneck -13.136 -0.436769 -2.30531
upperneck 21.9294 -0.258724 0.775695
head 9.04644 -0.227145 0.622201
rclavicle 4.96962e-017 -7.55382e-015
rhumerus -20.0714 -15.3916 -83.0113
rradius 24.4537
rwrist 33.568
rhand -21.1153 -26.2014
rfingers 7.12502
rthumb 5.26303 -56.1161
lclavicle 4.96962e-017 -7.55382e-015
lhumerus -20.3094 1.69958 88.3115
lradius 18.2273
lwrist 2.8928
lhand -26.4188 -5.81013
lfingers 7.12502
lthumb 0.141237 24.1696
rfemur -14.1796 -2.27548 20.3521
rtibia 24.163
rfoot -15.0809 -2.36222
rtoes 12.6316
lfemur -13.6349 5.36867 -18.1876
ltibia 20.8866
lfoot -11.5723 3.7502
ltoes -3.89254
547
root 0.685162 17.6661 3.18359 6.9392 0.457999 -1.22645
lowerback -1.77115 -0.041948 -0.171851
upperback 2.45948 -0.104798 1.73303
thorax 3.52584 -0.0816084 1.87548
lowerneck -13.1538 -0.429429 -2.32308
upperneck 21.7417 -0.24672 0.787026
head 8.98484 -0.220737 0.629795
rclavicle -3.97569e-016 -1.19271e-015
rhumerus -20.2425 -15.5769 -82.8996
rradius 24.3454
rwrist 33.7259
rhand -21.0957 -26.2037
rfingers 7.12502
rthumb 5.2819 -56.1178
lclavicle -3.97569e-016 -1.19271e-015
lhumerus -20.3578 1.7325 88.3355
lradius 18.1629
lwrist 2.80494
lhand -26.3941 -5.77082
lfingers 7.12502
lthumb 0.165078 24.2089
rfemur -14.0961 -2.30705 20.3519
rtibia 24.1298
rfoot -15.1097 -2.3597
rtoes 12.6212
lfemur -13.5598 5.36025 -18.1805
ltibia 20.86
lfoot -11.6039 3.74039
ltoes -3.89227
548
root 0.684859 17.6659 3.19303 6.92011 0.481402 -1.22432
lowerback -1.82416 -0.0658795 -0.165211
upperback 2.44765 -0.137233 1.73267
thorax 3.54467 -0.0976263 1.86984
lowerneck -13.1717 -0.424286 -2.34289
upperneck 21.5508 -0.238072 0.801653
head 8.92237 -0.215675 0.638433
rclavicle 7.95139e-016 -9.54166e-015
rhumerus -20.4029 -15.7852 -82.7838
rradius 24.2206
rwrist 33.9128
rhand -21.0764 -26.2025
rfingers 7.12502
rthumb 5.30056 -56.1162
lclavicle 7.95139e-016 -9.54166e-015
lhumerus -20.3995 1.75743 88.3599
lradius 18.096
lwrist 2.71407
lhand -26.366 -5.7186
lfingers 7.12502
lthumb 0.19221 24.2611
rfemur -14.0187 -2.34069 20.3504
rtibia 24.1012
rfoot -15.1404 -2.35578
rtoes 12.6026
lfemur -13.4903 5.35376 -18.1752
ltibia 20.8365
lfoot -11.6353 3.72903
ltoes -3.90486
549
root 0.684644 17.6655 3.20207 6.90435 0.502444 -1.2196
lowerback -1.87756 -0.0895521 -0.160424
upperback 2.43614 -0.169236 1.7312
thorax 3.56404 -0.113464 1.86408
lowerneck -13.1772 -0.420855 -2.36502
upperneck 21.3503 -0.232761 0.821403
head 8.8545 -0.211761 0.648761
rclavicle 1.73937e-015 -1.03368e-014
rhumerus -20.5608 -15.9966 -82.6658
rradius 24.0914
rwrist 34.1059
rhand -21.0565 -26.2029
rfingers 7.12502
rthumb 5.31981 -56.1162
lclavicle 1.73937e-015 -1.03368e-014
lhumerus -20.4409 1.77538 88.385
lradius 18.0308
lwrist 2.62381
lhand -26.3271 -5.6451
lfingers 7.12502
lthumb 0.229859 24.3345
rfemur -13.9503 -2.37468 20.3456
rtibia 24.0794
rfoot -15.1713 -2.35101
rtoes 12.5734
lfemur -13.4278 5.34504 -18.1738
ltibia 20.8164
lfoot -11.6633 3.7215
ltoes -3.9243
550
root 0.684385 17.6649 3.21051 6.89104 0.518085 -1.21344
lowerback -1.93307 -0.111362 -0.158295
upperback 2.42806 -0.198717 1.72938
thorax 3.58807 -0.128149 1.85955
lowerneck -13.1698 -0.419276 -2.39654
upperneck 21.134 -0.231872 0.857244
head 8.77913 -0.208885 0.665522
rclavicle -3.67752e-015 8.34896e-015
rhumerus -20.714 -16.2077 -82.5461
rradius 23.9623
rwrist 34.3047
rhand -21.0274 -26.204
rfingers 7.12502
rthumb 5.34785 -56.1165
lclavicle -3.67752e-015 8.34896e-015
lhumerus -20.4787 1.79549 88.4109
lradius 17.967
lwrist 2.53079
lhand -26.2899 -5.57487
lfingers 7.12502
lthumb 0.265706 24.4047
rfemur -13.8924 -2.39941 20.3393
rtibia 24.0653
rfoot -15.2011 -2.35136
rtoes 12.539
lfemur -13.3721 5.33593 -18.1745
ltibia 20.7993
lfoot -11.6876 3.71943
ltoes -3.94953
551
root 0.684127 17.6643 3.21852 6.87902 0.528463 -1.20775
lowerback -1.98546 -0.131807 -0.157578
upperback 2.42035 -0.226312 1.72775
thorax 3.61065 -0.141926 1.85607
lowerneck -13.1671 -0.414593 -2.41431
upperneck 20.9225 -0.22668 0.880275
head 8.70633 -0.204258 0.676107
rclavicle 9.44227e-016 5.96354e-015
rhumerus -20.866 -16.4243 -82.4242
rradius 23.829
rwrist 34.5126
rhand -20.9968 -26.2022
rfingers 7.12502
rthumb 5.37743 -56.114
lclavicle 9.44227e-016 5.96354e-015
lhumerus -20.5186 1.82013 88.4358
lradius 17.9094
lwrist 2.44358
lhand -26.2429 -5.48914
lfingers 7.12502
lthumb 0.31117 24.4904
rfemur -13.8425 -2.41557 20.3333
rtibia 24.0589
rfoot -15.2309 -2.35497
rtoes 12.5083
lfemur -13.3195 5.32663 -18.1751
ltibia 20.7829
lfoot -11.7087 3.722
ltoes -3.97002
